<?xml version="1.0" encoding="utf-8"?>
<!-- Generator: Adobe Illustrator 15.1.0, SVG Export Plug-In  -->
<!DOCTYPE svg PUBLIC "-//W3C//DTD SVG 1.1//EN" "http://www.w3.org/Graphics/SVG/1.1/DTD/svg11.dtd" [
	<!ENTITY ns_flows "http://ns.adobe.com/Flows/1.0/">
]>
<svg version="1.1"
	 xmlns="http://www.w3.org/2000/svg" xmlns:xlink="http://www.w3.org/1999/xlink" xmlns:a="http://ns.adobe.com/AdobeSVGViewerExtensions/3.0/"
	 x="0px" y="0px" width="82px" height="44px" viewBox="-0.5 -3.234 82 44" enable-background="new -0.5 -3.234 82 44"
	 xml:space="preserve">
<defs>
</defs>
<path fill="#FF6200" d="M0.174,34.948C0.089,34.959,0.011,34.899,0,34.813c0-0.011,0-0.022,0-0.029v-7.027
	c-0.004-0.082,0.059-0.155,0.144-0.162c0.011,0,0.022,0,0.03,0.002h1.543c0.993,0,1.655,0.203,2.073,0.603
	c0.399,0.422,0.605,0.993,0.571,1.572c0.046,0.658-0.188,1.304-0.643,1.783c-0.396,0.378-0.991,0.575-1.796,0.575
	c-0.375-0.004-0.751-0.034-1.124-0.093v2.744c0.005,0.086-0.058,0.159-0.143,0.165c-0.011,0-0.022,0-0.032-0.002L0.174,34.948z
	 M0.787,28.248v3.145c0.354,0.057,0.713,0.084,1.071,0.084c0.478,0.042,0.952-0.129,1.3-0.461c0.274-0.346,0.413-0.774,0.386-1.217
	c0.037-0.425-0.104-0.844-0.386-1.162c-0.287-0.284-0.737-0.395-1.358-0.395L0.787,28.248z"/>
<path fill="#FF6200" d="M4.904,32.394c0-1.715,0.949-2.939,2.44-2.939c1.492,0,2.154,1.186,2.154,2.758
	c0,0.225-0.058,0.317-0.173,0.317H5.69c0.02,1.246,0.643,1.829,1.836,1.829c0.464-0.007,0.921-0.121,1.338-0.324
	c0.091-0.043,0.144-0.032,0.193,0.061l0.133,0.314c0.041,0.104,0.021,0.155-0.083,0.214c-0.532,0.305-1.136,0.449-1.745,0.43
	C5.69,35.05,4.904,34.009,4.904,32.394z M5.71,31.876h3.023c0-0.807-0.417-1.713-1.377-1.713C6.396,30.163,5.853,30.793,5.71,31.876
	L5.71,31.876L5.71,31.876z"/>
<path fill="#FF6200" d="M10.46,32.385c0-1.962,1.039-2.933,2.511-2.933c1.602,0,2.286,1.162,2.286,2.665
	c0,1.962-1.043,2.933-2.512,2.933C11.154,35.05,10.46,33.888,10.46,32.385z M14.481,32.203c0-0.899-0.285-2.074-1.551-2.074
	c-0.828,0-1.686,0.573-1.686,2.176c0,0.896,0.285,2.073,1.551,2.073C13.626,34.378,14.481,33.815,14.481,32.203L14.481,32.203z"/>
<path fill="#FF6200" d="M18.872,29.454c0.509-0.011,1.002,0.182,1.369,0.532c0.517,0.576,0.787,1.33,0.745,2.105
	c0,1.999-1.142,2.952-2.368,2.952c-0.456-0.009-0.904-0.145-1.286-0.391v2.614c0.011,0.075-0.04,0.144-0.111,0.155
	c-0.015,0.002-0.03,0.002-0.046,0h-0.441c-0.071,0.011-0.141-0.036-0.154-0.111c-0.002-0.014-0.002-0.029,0-0.044v-5.543
	c0-0.785,0-1.49-0.03-2.022c0-0.091,0.05-0.142,0.155-0.142h0.408c0.11,0,0.162,0.036,0.174,0.142
	c0.011,0.103,0.041,0.377,0.041,0.498C17.702,29.731,18.27,29.454,18.872,29.454z M18.812,30.199
	c-0.42-0.014-0.83,0.133-1.143,0.412c-0.285,0.283-0.346,0.61-0.346,1.776v1.573c0.361,0.257,0.791,0.394,1.234,0.394
	c0.99,0,1.634-0.878,1.634-2.184c0.009-1.371-0.482-1.974-1.379-1.974V30.199L18.812,30.199z"/>
<path fill="#FF6200" d="M22.989,33.784c0,0.45,0.041,0.594,0.397,0.594c0.104,0,0.144,0.029,0.144,0.133v0.198
	c0,0.113-0.021,0.144-0.104,0.177c-0.12,0.042-0.248,0.061-0.376,0.059c-0.278,0.023-0.543-0.118-0.682-0.357
	c-0.104-0.182-0.124-0.466-0.124-0.998v-3.908c0-1.82-0.059-2.227-0.059-2.41c0-0.09,0.031-0.144,0.133-0.144h0.458
	c0.091,0,0.13,0.032,0.144,0.112c0.039,0.316,0.069,1.194,0.069,2.57V33.784z"/>
<path fill="#FF6200" d="M24.336,32.394c0-1.715,0.949-2.939,2.439-2.939c1.491,0,2.155,1.186,2.155,2.758
	c0,0.225-0.061,0.317-0.177,0.317h-3.623c0.021,1.246,0.644,1.829,1.837,1.829c0.465-0.007,0.922-0.121,1.339-0.324
	c0.091-0.043,0.144-0.032,0.193,0.061l0.132,0.314c0.042,0.104,0.02,0.155-0.083,0.214c-0.532,0.305-1.136,0.449-1.746,0.43
	C25.131,35.05,24.336,34.009,24.336,32.394z M25.14,31.876h3.024c0-0.807-0.417-1.713-1.377-1.713s-1.49,0.63-1.634,1.712
	L25.14,31.876z"/>
<path fill="#FF6200" d="M32.771,28.432c-0.102,0-0.154-0.052-0.154-0.142v-0.726c0-0.091,0.049-0.146,0.154-0.146h0.708
	c0.11,0,0.163,0.055,0.163,0.146v0.73c0,0.091-0.053,0.144-0.163,0.144L32.771,28.432z M32.903,34.948
	c-0.102,0-0.154-0.054-0.154-0.146v-5.105c0-0.092,0.052-0.144,0.154-0.144h0.441c0.104,0,0.154,0.052,0.154,0.144v5.105
	c0,0.092-0.05,0.146-0.154,0.146H32.903z"/>
<path fill="#FF6200" d="M37.531,29.454c0.537-0.013,1.06,0.182,1.46,0.541c0.375,0.377,0.521,0.919,0.521,1.767v3.041
	c0,0.092-0.052,0.146-0.156,0.146h-0.45c-0.103,0-0.152-0.054-0.152-0.146v-2.602c0-0.857-0.022-1.317-0.307-1.644
	c-0.289-0.273-0.677-0.407-1.071-0.368c-0.449-0.011-0.886,0.146-1.227,0.439c-0.176,0.225-0.27,0.501-0.265,0.785
	c-0.03,0.356-0.041,0.878-0.041,1.545v1.846c0,0.093-0.05,0.145-0.154,0.145H35.25c-0.104,0-0.154-0.052-0.154-0.145v-3.082
	c0-0.783,0-1.49-0.03-2.021c0-0.091,0.05-0.143,0.154-0.143h0.408c0.111,0,0.163,0.037,0.174,0.143
	c0.013,0.103,0.032,0.345,0.032,0.47C36.277,29.709,36.892,29.452,37.531,29.454z"/>
<path fill="#FF6200" d="M45.914,29.454c0.51-0.011,1.002,0.182,1.368,0.532c0.52,0.576,0.786,1.33,0.745,2.105
	c0,1.999-1.143,2.952-2.367,2.952c-0.456-0.009-0.903-0.145-1.287-0.391v2.614c0.014,0.075-0.037,0.144-0.11,0.155
	c-0.015,0.002-0.03,0.002-0.046,0h-0.454c-0.071,0.011-0.141-0.036-0.153-0.111c-0.003-0.014-0.003-0.029,0-0.044v-5.543
	c0-0.785,0-1.49-0.031-2.022c0-0.091,0.051-0.142,0.153-0.142h0.41c0.111,0,0.162,0.036,0.174,0.142
	c0.011,0.103,0.04,0.377,0.04,0.498C44.732,29.724,45.307,29.45,45.914,29.454z M45.853,30.199
	c-0.417-0.014-0.827,0.133-1.142,0.412c-0.285,0.283-0.347,0.61-0.347,1.776v1.573c0.361,0.257,0.791,0.394,1.234,0.394
	c0.99,0,1.637-0.878,1.637-2.184c0.003-1.371-0.485-1.974-1.385-1.974L45.853,30.199z"/>
<path fill="#FF6200" d="M51.744,29.503c0.16,0,0.232,0.033,0.232,0.175v0.357c0.013,0.075-0.039,0.15-0.116,0.162
	c-0.003,0-0.01,0-0.017,0c-0.43,0.048-0.831,0.239-1.142,0.542c-0.429,0.439-0.61,1.021-0.61,2.068v2.005
	c0,0.091-0.054,0.141-0.156,0.141h-0.439c-0.104,0-0.155-0.05-0.155-0.141v-3.09c0-0.783,0-1.49-0.031-2.021
	c0-0.091,0.05-0.143,0.153-0.143h0.398c0.11,0,0.16,0.037,0.174,0.143c0.02,0.227,0.029,0.664,0.029,1
	C50.357,30.02,51.006,29.558,51.744,29.503z"/>
<path fill="#FF6200" d="M52.336,32.385c0-1.962,1.042-2.933,2.515-2.933c1.601,0,2.286,1.162,2.286,2.665
	c0,1.962-1.045,2.933-2.512,2.933C53.02,35.05,52.336,33.888,52.336,32.385z M56.36,32.203c0-0.899-0.284-2.074-1.551-2.074
	c-0.825,0-1.687,0.573-1.687,2.176c0,0.896,0.285,2.073,1.553,2.073c0.806,0,1.663-0.563,1.663-2.175H56.36z"/>
<path fill="#FF6200" d="M61.895,35.039v-0.825c-0.357,0.493-0.936,0.785-1.545,0.774c-1.551,0-2.233-1.283-2.233-2.674
	c0-1.798,1.081-2.858,2.399-2.858c0.56,0.009,1.087,0.259,1.447,0.684c0.008-0.157,0.024-0.313,0.053-0.466
	c0.019-0.091,0.071-0.113,0.154-0.113h0.265c0.132,0,0.163,0.04,0.177,0.154c0.019,0.378,0.029,0.93,0.029,1.428v3.98
	c0,0.766-0.183,1.39-0.61,1.82c-0.378,0.375-0.939,0.588-1.78,0.588c-0.418-0.001-0.835-0.053-1.244-0.151
	c-0.134-0.042-0.143-0.105-0.12-0.196l0.058-0.284c0.032-0.124,0.062-0.156,0.215-0.124c0.366,0.073,0.737,0.11,1.112,0.11
	c0.452,0.04,0.899-0.119,1.227-0.44C61.798,36.046,61.941,35.542,61.895,35.039z M61.515,33.804c0.275-0.395,0.409-0.876,0.38-1.356
	v-1.604c-0.313-0.436-0.818-0.703-1.358-0.705c-1.144,0-1.634,1.011-1.634,2.112c0,1.197,0.511,2.057,1.542,2.057
	C60.859,34.308,61.254,34.125,61.515,33.804z"/>
<path fill="#FF6200" d="M66.626,29.503c0.163,0,0.234,0.033,0.234,0.175v0.357c0.011,0.075-0.04,0.15-0.118,0.162
	c-0.005,0-0.011,0-0.015,0c-0.43,0.048-0.834,0.239-1.143,0.542c-0.429,0.439-0.613,1.021-0.613,2.068v2.005
	c0,0.091-0.05,0.141-0.151,0.141h-0.442c-0.104,0-0.153-0.05-0.153-0.141v-3.09c0-0.783,0-1.49-0.032-2.021
	c0-0.091,0.053-0.143,0.154-0.143h0.397c0.11,0,0.162,0.037,0.176,0.143c0.02,0.227,0.03,0.664,0.03,1
	C65.238,30.02,65.887,29.558,66.626,29.503z"/>
<path fill="#FF6200" d="M67.215,32.394c0-1.715,0.95-2.939,2.442-2.939s2.155,1.186,2.155,2.758c0,0.225-0.06,0.317-0.174,0.317
	h-3.638c0.023,1.246,0.644,1.829,1.839,1.829c0.466-0.007,0.922-0.121,1.338-0.324c0.092-0.043,0.142-0.032,0.194,0.061l0.133,0.314
	c0.038,0.104,0.02,0.155-0.083,0.214c-0.532,0.305-1.137,0.449-1.747,0.43C68.001,35.05,67.215,34.009,67.215,32.394z
	 M68.021,31.876h3.024c0-0.807-0.417-1.713-1.378-1.713C68.708,30.163,68.165,30.793,68.021,31.876L68.021,31.876L68.021,31.876z"/>
<path fill="#FF6200" d="M74.507,35.05c-0.581,0.003-1.149-0.157-1.643-0.459c-0.08-0.035-0.118-0.131-0.08-0.211
	c0.004-0.013,0.012-0.025,0.02-0.035l0.132-0.246c0.05-0.092,0.111-0.144,0.227-0.084c0.415,0.248,0.886,0.376,1.366,0.38
	c0.737,0,1.197-0.431,1.197-0.968c0-1.32-2.89-0.501-2.89-2.45c0-0.973,0.837-1.524,1.816-1.524c0.598-0.002,1.177,0.2,1.645,0.573
	c0.091,0.073,0.091,0.157,0,0.285l-0.174,0.211c-0.042,0.068-0.126,0.09-0.193,0.052c-0.014-0.009-0.024-0.016-0.031-0.028
	c-0.368-0.275-0.818-0.428-1.279-0.428c-0.715,0-1.084,0.348-1.084,0.824c0,1.336,2.891,0.481,2.891,2.471
	C76.426,34.336,75.69,35.05,74.507,35.05z"/>
<path fill="#FF6200" d="M79.082,35.05c-0.58,0.003-1.149-0.157-1.646-0.459c-0.08-0.035-0.116-0.131-0.08-0.211
	c0.006-0.013,0.014-0.025,0.023-0.035l0.129-0.246c0.053-0.092,0.113-0.144,0.226-0.084c0.415,0.248,0.89,0.376,1.369,0.38
	c0.734,0,1.195-0.431,1.195-0.968c0-1.32-2.891-0.501-2.891-2.45c0-0.973,0.837-1.524,1.819-1.524
	c0.595-0.002,1.176,0.2,1.643,0.573c0.091,0.073,0.091,0.157,0,0.285l-0.174,0.211c-0.04,0.068-0.127,0.09-0.194,0.052
	c-0.013-0.009-0.021-0.016-0.031-0.028c-0.368-0.275-0.815-0.428-1.278-0.428c-0.714,0-1.083,0.348-1.083,0.824
	c0,1.336,2.891,0.481,2.891,2.471C81,34.336,80.266,35.05,79.082,35.05z"/>
<path fill="#FFFFFF" d="M73.839,19.769c0.379-0.006,0.751-0.125,1.071-0.334h0.65c1.264,0.056,2.487-0.44,3.362-1.354
	c1.306-1.25,2.066-3.314,2.066-5.3c-0.016-2.43-0.992-4.756-2.72-6.469c-0.757-0.763-1.584-1.126-2.237-1.877
	c-0.324-0.313-0.593-0.682-0.793-1.086c-0.216-0.243-0.475-0.446-0.764-0.597l-0.434-0.057c-0.055-0.1-0.215-0.1-0.326-0.1
	c-0.858-0.146-1.662,0.321-2.507,0.483v0.109c0.541,0.163,0.641,0.817,0.943,1.142l0.259,0.372c0.352,0.396,0.803,0.69,1.305,0.857
	c0.71,0.107,1.306-0.218,2-0.054c2.455,1.197,4.194,4,4.194,6.796c0,3.999-2.286,5.572-3.716,5.572
	c-0.311-0.02-0.608-0.129-0.854-0.318c0.19-0.712,0.279-1.449,0.257-2.186c0-2.313-0.909-4.813-2.16-6.086
	c-0.599-0.602-1.245-1.09-1.915-1.09c-0.326,0-0.654,0-0.855,0.286c-0.27,0.228-0.411,0.573-0.381,0.922
	c-0.499,0.326-1.086,0.496-1.683,0.488c-0.741-0.016-1.456-0.285-2.028-0.76V8.29l-0.103-0.434c-0.055-0.355-0.055-0.79-0.326-1.118
	l-0.16-0.435c-0.271-0.649-0.164-0.923-0.653-1.875c-0.108-0.487-0.597-0.761-0.922-1.087c-0.164-0.111-0.309-0.6-0.309-0.6
	c-0.324-0.741-0.541-1.549-1.248-1.982l-0.165,0.108l-0.38-0.272c-0.15-0.167-0.372-0.248-0.595-0.215l-0.348-0.271
	c-0.324-0.057-0.65-0.057-0.973,0l-0.377,0.107c-0.222,0.054-0.49,0.216-0.602,0.216C59.043,0.228,58.639,0.082,58.22,0
	l-0.375,0.109c-0.294,0.006-0.579,0.103-0.817,0.271c0,0-0.543,0.163-0.595,0.163c-0.147,0.083-0.278,0.198-0.384,0.334
	c-0.373,0.272-0.657,0.649-0.814,1.084l-0.216,0.434v0.792c-0.218,0.169-0.389,0.395-0.488,0.65
	c-0.257,0.947-0.368,1.926-0.329,2.906c-0.026,0.151-0.129,0.275-0.271,0.329v0.841c0.051,0.233,0.087,0.471,0.108,0.708
	c0,0.218,0.055,0.436,0.055,0.655c-0.007,0.076,0.013,0.152,0.055,0.217c0-0.109,0.054,0.489,0.054,0.542
	c0.219,1.078,0.548,2.13,0.979,3.142c-0.438,0.702-0.925,2.062-1.25,3.364c-0.271-0.234-0.626-0.349-0.979-0.323
	c-0.343,0.033-0.656,0.209-0.857,0.487c-0.316-0.162-0.698-0.119-0.969,0.11c-0.454,0.389-0.454,0.604-0.454,0.922
	c-0.21,0.204-0.331,0.485-0.335,0.778c-0.029,0.441,0.086,0.881,0.328,1.25h23.176V19.769z"/>
<path fill="#000068" d="M45.119,14.664v3.857c-2.171,1.091-4.208,1.63-6.248,1.63c-5.655,0-9.053-3.313-9.053-7.524
	c0-4.541,3.889-8.287,8.836-8.287c1.059-0.004,2.111,0.171,3.109,0.522c0.695,0.218,1.124,0.465,1.558,0.465
	c0.386,0,0.489-0.634,0.545-1.006h0.54l0.501,5.229h-0.653c-0.221-0.942-0.707-1.801-1.408-2.471
	c-1.07-1.053-2.521-1.623-4.02-1.579c-3.4,0-5.381,2.691-5.381,6.743c0,4.003,2.419,6.711,5.653,6.711
	c1.001-0.016,1.989-0.256,2.884-0.708v-3.957c0-1.274-0.202-1.766-2.042-1.766v-0.608h6.826v0.598
	C45.062,12.516,45.119,13.059,45.119,14.664z M26.315,8.291V19.87h-0.893L13.839,7.922c0.045,0.306,0.063,0.618,0.054,0.927v7.287
	c0,2.223,0,3.04,2.038,3.04v0.597h-5.429v-0.597c2.06,0,2.06-0.978,2.06-3.04V7.824c0-1.236,0-2.59-2.168-2.59v-0.57h5.125
	l9.524,9.779c-0.05-0.269-0.067-0.542-0.055-0.815V8.29c0-2.146,0.055-3.067-1.999-3.067V4.651h5.429v0.571
	C26.424,5.236,26.315,6.103,26.315,8.291z M0,19.769v-0.594c1.306,0,2.232-0.11,2.232-2V7.243c0-1.957-0.708-2-2.232-2v-0.57h7.658
	v0.57c-1.568,0-2.22,0.048-2.22,2v9.931c0,1.89,0.818,2,2.22,2v0.594H0z"/>
<path fill="#FF6200" d="M60.128,19.769c-0.205-0.442-0.316-0.924-0.327-1.412c-0.026-0.314,0.031-0.63,0.164-0.915l-0.597,0.114
	c-0.163,0.204-0.218,0.314-0.218,0.42l0.285-0.106c0.054,0,0.109,0.106,0.162,0.214c-0.053,0.272-0.379,0.272-0.489,0.379
	c-0.16,0.542,0.327,0.857,0.381,1.304L60.128,19.769z M80.986,12.789c-0.013-2.43-0.991-4.757-2.719-6.469
	c-0.755-0.763-1.582-1.126-2.238-1.877c-0.323-0.312-0.593-0.683-0.795-1.086c-0.215-0.243-0.473-0.445-0.763-0.597l0.164,0.488
	h-0.054c-0.278-0.026-0.545-0.141-0.757-0.325l0.212-0.219c-0.054-0.099-0.212-0.099-0.326-0.099
	c-0.857-0.146-1.661,0.321-2.508,0.483v0.109c0.542,0.163,0.643,0.814,0.944,1.144h0.315c0.108,0,0.283,0.105,0.382,0.105
	c-0.021-0.113-0.057-0.221-0.11-0.324c0.067-0.09,0.195-0.107,0.287-0.042c0.015,0.011,0.028,0.027,0.039,0.042
	c0.272,0.164,0.653-0.107,0.926,0.324c-0.318-0.03-0.637,0.027-0.926,0.169c0,0.053,0.166,0.151,0.11,0.261
	c-0.272-0.11-0.6,0-0.708-0.208l-0.057,0.041c0.352,0.396,0.803,0.692,1.308,0.859c0.703,0.106,1.306-0.218,1.999-0.056
	c2.455,1.199,4.194,4,4.194,6.795c0,4-2.288,5.573-3.715,5.573c-0.311-0.019-0.61-0.127-0.858-0.314
	c0.191-0.712,0.28-1.448,0.261-2.187c0-2.309-0.912-4.813-2.163-6.086c-0.603-0.599-1.243-1.088-1.912-1.088
	c-0.325,0-0.654,0-0.857,0.269c-0.271,0.229-0.41,0.575-0.379,0.924c-0.502,0.324-1.089,0.495-1.683,0.488
	c-0.744-0.019-1.459-0.285-2.032-0.761V8.291c-0.157-0.053-0.7-0.379-0.428-0.629c0.121,0.046,0.23,0.113,0.326,0.198
	c-0.056-0.355-0.056-0.789-0.326-1.117c-0.152,0.009-0.304-0.028-0.433-0.108c-0.184-0.161-0.299-0.386-0.322-0.629
	c0.166,0.286,0.438,0.162,0.603,0.325c-0.269-0.65-0.165-0.922-0.65-1.878c-0.111-0.485-0.598-0.76-0.925-1.085
	c-0.162-0.107-0.218-0.285-0.417-0.285c-0.214-0.054-0.214-0.325-0.214-0.482c0.114,0.039,0.221,0.091,0.323,0.157
	c-0.323-0.742-0.539-1.549-1.248-1.987l-0.165,0.108h-0.858c0.157-0.1,0.32-0.193,0.489-0.272c-0.147-0.167-0.371-0.248-0.592-0.215
	c-0.173,0.105-0.362,0.178-0.559,0.215h-0.051c0-0.163-0.057-0.379,0.259-0.488c-0.319-0.055-0.649-0.055-0.969,0
	c-0.057,0.272-0.219,0.435-0.219,0.651c-0.164,0.108-0.22,0.272-0.383,0.437c0.047-0.332,0.118-0.66,0.219-0.979
	c-0.219,0.052-0.491,0.215-0.6,0.215c-0.376-0.208-0.783-0.358-1.205-0.44c0.325,0.215,0.165,0.599,0.217,0.858l-0.217-0.109
	c-0.052-0.216-0.326-0.38-0.378-0.649c-0.294,0.007-0.578,0.1-0.817,0.272v0.055c0.202,0.034,0.381,0.152,0.489,0.323
	c-0.38,0-0.655-0.162-1.034-0.162c0,0,0-0.054-0.047-0.054c-0.151,0.087-0.281,0.204-0.386,0.346
	c-0.371,0.271-0.655,0.65-0.812,1.083c0.104,0,0.283,0,0.325,0.054c-0.221,0.054-0.325,0.326-0.547,0.38V3.19
	c-0.218,0.171-0.386,0.395-0.487,0.65c-0.256,0.948-0.365,1.928-0.326,2.907c-0.025,0.149-0.13,0.274-0.271,0.325v0.842
	c0.154-0.144,0.317-0.281,0.486-0.404v0.679c-0.215,0-0.377,0.271-0.377,0.435c0,0.217,0.052,0.435,0.052,0.652
	c-0.007,0.076,0.014,0.152,0.055,0.215c0-0.108,0.108-0.215,0.287-0.269c0.091-0.079,0.205-0.115,0.325-0.111
	c-0.149,0.183-0.269,0.386-0.353,0.606L54.246,9.88c-0.024,0.049-0.042,0.105-0.054,0.162c0.219,1.077,0.549,2.132,0.98,3.144
	c-0.437,0.699-0.927,2.061-1.252,3.365c-0.271-0.234-0.624-0.349-0.98-0.323c-0.343,0.031-0.655,0.209-0.857,0.489
	c-0.314-0.163-0.698-0.121-0.969,0.11c-0.451,0.387-0.451,0.601-0.451,0.92c-0.205,0.201-0.322,0.471-0.328,0.759
	c-0.031,0.441,0.086,0.881,0.328,1.251h8.158c-0.061-0.179-0.158-0.346-0.283-0.489c-0.159-0.325-0.055-0.762-0.055-1.089
	c0.149-0.321,0.332-0.628,0.542-0.913c0.055-0.164,0-0.164,0.055-0.219l0.381-0.061c0.218,0,0.38-0.161,0.651-0.161
	c0.163,0.227,0.163-0.166,0.438-0.287c0.593-0.108,1.142,0,1.473,0.435c0,0.063,0.057,0.063,0.057,0.117h-0.288
	c-0.301-0.117-0.661-0.286-1.043-0.117c0,0.117-0.051,0.117-0.051,0.285v0.287c0.212,0,0.379,0.204,0.593,0.316
	c0.147-0.188,0.369-0.302,0.608-0.316c0.33-0.03,0.621,0.214,0.65,0.542c0,0.011,0.003,0.02,0.003,0.03v0.595
	c0.224,0.182,0.482,0.311,0.759,0.381c-0.076,0.164-0.255,0.255-0.434,0.22h-0.436c-0.053-0.052-0.16-0.052-0.16-0.22
	c-0.146,0.209-0.276,0.426-0.383,0.656h6.285c-0.105-0.216-0.214-0.377-0.271-0.489c-0.091-0.356-0.126-0.721-0.108-1.089
	l0.599-0.805c0.325,0,0.599-0.11,1.195-0.163c0.111-0.164,0-0.227,0.488-0.227c0.26-0.013,0.518,0.027,0.761,0.115
	c0.055,0.112,0.055,0.112,0,0.219c-0.105,0.11-0.323-0.107-0.487-0.056c-0.108,0.11,0.054,0.161,0.054,0.286
	c0.108,0.095-0.489-0.115-0.489-0.115s-0.109,0.319-0.163,0.427l0.326,0.325c0.109,0.163-0.163,0.327-0.163,0.488
	c-0.109-0.052-0.328-0.214-0.328-0.162c-0.108,0.438,0,0.816-0.054,1.251h0.598l0.055-0.922c0.057-0.546,0.707-1.513,1.088-1.513
	c0.197,0.012,0.387,0.089,0.533,0.22c0.102,0.205,0.354,0.313,0.354,0.42c0,0.107-0.152,0.166-0.402,0.166
	c-0.104,0-0.104-0.166-0.268-0.274l-0.326,0.325c0,0,0.381,0.327,0.381,0.546c0.021,0.206-0.061,0.409-0.218,0.542l-0.326-0.651
	c-0.163,0-0.434,0.326-0.434,0.487c0,0.22-0.108,0.325-0.108,0.658h3.33c0.394-0.005,0.779-0.119,1.113-0.333h0.648
	c1.264,0.054,2.487-0.44,3.362-1.356C80.242,16.832,81,14.766,81,12.783h-0.014V12.789z M69.3,17.707l-0.541,0.052
	c0.146,0.094,0.23,0.26,0.219,0.435c-0.016,0.169-0.096,0.325-0.219,0.438c-0.111-0.11-0.111-0.286-0.219-0.438
	c-0.107,0-0.164,0.287-0.164,0.381c0.027,0.422,0.161,0.833,0.383,1.194h0.49c-0.086-0.429-0.142-0.866-0.165-1.304
	c0.037-0.262,0.115-0.519,0.231-0.757H69.3z M62.191,18.357c0-0.216-0.161-0.269-0.38-0.269c-0.107,0-0.353,0.161-0.353,0.269
	c0,0.219-0.101,1.416-0.101,1.416h0.351c0.168-0.49,0.493-1.143,0.493-1.416H62.191z M61.046,18.305
	c-0.056,0,0.058,0.108-0.488-0.433c-0.11,0-0.285,0.324-0.285,0.433c0.014,0.502,0.111,0.998,0.285,1.469h0.433
	c0.004-0.492,0.063-1.035,0.063-1.482L61.046,18.305z M75.243,4.668c-0.089-0.193-0.278-0.318-0.491-0.328
	c-0.162-0.219-0.38-0.488-0.597-0.488c0.162,0,0.382-0.163,0.648-0.163c0.108,0.285,0.328,0.434,0.385,0.651L75.243,4.668z
	 M73.61,3.526h-0.596c-0.107-0.164-0.286,0-0.38,0s-0.166,0-0.375-0.164c0.32,0,0.485-0.162,0.755-0.286
	c0.226,0.174,0.44,0.226,0.604,0.443L73.61,3.526z M72.314,9.721c-0.354-0.11-0.554-0.272-0.88-0.272
	c-0.236,0.034-0.462,0.126-0.651,0.272c-0.163-0.217,0.109-0.651,0.323-0.762c0.135-0.083,0.304-0.083,0.437,0
	c0,0.327,0.367,0.164,0.571,0.288C72.21,9.39,72.28,9.552,72.314,9.721z M72.265,10.509c-0.305,0-0.352-0.043-0.568-0.043
	c-0.301-0.015-0.59,0.124-0.762,0.369c-0.084-0.143-0.084-0.318,0-0.461c0.168-0.195,0.398-0.328,0.653-0.378
	c0.32-0.027,0.611,0.192,0.677,0.509V10.509z M73.512,11.705c-0.443-0.261-0.943-0.411-1.456-0.441
	c-0.389,0.073-0.753,0.241-1.061,0.488l-0.111-0.488c0.327-0.056,0.327-0.329,0.543-0.329c0.162,0,0.372-0.054,0.525-0.054
	c0.151,0,0.254-0.104,0.307-0.104c0.265,0,0.156,0.267,0.318,0.267c0.165,0,0.287-0.11,0.384-0.11
	c0.279,0.002,0.494,0.441,0.549,0.765L73.512,11.705z M73.675,12.902c-0.38,0-0.761-0.11-0.817-0.273
	c-0.108-0.107,0-0.329-0.286-0.329c-0.108,0-0.271,0.163-0.271,0.163c-0.101,0.055-0.401-0.163-0.401,0
	c0,0.272-0.207,0.38-0.479,0.38c-0.11,0.01-0.225-0.01-0.324-0.054v-0.542c0.699,0,0.649-0.219,0.954-0.219
	c0.204,0,0.361,0.107,0.524,0.107c0.283,0,0.11-0.107,0.382-0.107c0.271,0,0.377,0.219,0.543,0.271
	c0.011,0.162,0.174,0.383,0.174,0.599L73.675,12.902z M73.197,14.064c-0.161-0.055-0.541-0.109-0.541-0.271
	c0-0.218-0.111-0.287-0.376-0.287c-0.23,0.015-0.456,0.07-0.67,0.162c-0.095-0.13-0.166-0.273-0.215-0.428
	c0.234-0.088,0.48-0.141,0.729-0.159c0.364,0,0.746,0,0.746,0.159C72.857,13.466,73.197,13.52,73.197,14.064z M63.769,5.611
	c0,0.052-0.109,0.542-0.109,0.542l-0.434,0.107l0.271-1.174C63.614,5.249,63.706,5.424,63.769,5.611z M74.203,15.968
	c0.032,0.247-0.027,0.498-0.161,0.705l-0.326-0.489c0.111-0.162,0.111-0.379,0.284-0.651c0.055,0,0.221,0.379,0.221,0.438
	L74.203,15.968z M72.912,15.262c-0.382,0-0.166-0.761-0.954-0.761c-0.151,0-0.256,0.286-0.471,0.326c0-0.051,0.055-0.38,0.055-0.38
	c0.001-0.183,0.104-0.348,0.265-0.435c0.402,0,0.302,0.163,0.61,0.271c0.151,0.089,0.318,0.144,0.49,0.163L72.912,15.262z
	 M69.532,12.189c-0.488-0.271-0.761-0.76-1.195-1.254c0.435,0,0.543,0.44,0.857,0.495c0.123,0.093,0.231,0.202,0.322,0.323
	L69.532,12.189z M64.903,8.188c-0.326,0-0.49-0.163-0.652-0.465c-0.026-0.214-0.026-0.432,0-0.648
	c0.107,0.218,0.107,0.329,0.217,0.436c0.217-0.109,0.217,0.157,0.272,0.212c0.086,0.146,0.143,0.304,0.17,0.471L64.903,8.188z
	 M73.839,17.385c-0.075,0.093-0.132,0.201-0.166,0.312c0-0.263-0.328-0.42-0.547-0.856l0.217-0.383
	c0.21,0.105,0.354,0.31,0.379,0.543c-0.032,0.073-0.032,0.155,0,0.229c0.006,0.051,0.117,0.051,0.117,0.161V17.385L73.839,17.385z
	 M72.746,15.854c-0.014,0.185-0.05,0.368-0.107,0.543c-0.374-0.053-0.374-0.491-0.426-0.543c-0.255-0.324-0.617-0.054-0.887-0.054
	c-0.108-0.327,0.055-0.327,0.055-0.545c0.165,0,0.326-0.109,0.48,0c0.251-0.109,0.403,0.162,0.669,0.162
	c0.063,0.153,0.137,0.299,0.221,0.441L72.746,15.854z M70.021,13.625c0,0.22-0.108,0.38-0.054,0.601
	c-0.111-0.328-0.328-0.65-0.439-0.974c0-0.055-0.054-0.055,0.056-0.107c0.058,0,0.272,0,0.272,0.053
	c0.089,0.131,0.143,0.278,0.163,0.433v-0.004H70.021z M65.283,9.388c-0.056,0.221-0.287,0-0.323,0h-0.492
	c-0.055-0.107-0.109-0.161-0.109-0.285c0.217-0.054,0.382-0.164,0.547-0.054C65.011,9.228,65.12,9.388,65.283,9.388z M66.48,10.611
	c-0.283,0.201-0.667,0.178-0.924-0.055l0.432-0.188C66.141,10.471,66.307,10.553,66.48,10.611z M69.261,13.684
	c0,0.324-0.055,0.708-0.055,1.088c-0.162,0-0.162-0.108-0.162-0.329c-0.071-0.316-0.165-0.625-0.285-0.923
	c-0.111-0.422-0.383-0.788-0.596-1.275c-0.056-0.219-0.328-0.327-0.547-0.49c0.274-0.04,0.551,0.041,0.763,0.22
	c0,0.107,0.056,0.162,0.222,0.323c0.379,0,0.266,0.492,0.597,0.71c-0.163,0.139-0.218,0.249-0.326,0.351
	C69.044,13.466,69.197,13.52,69.261,13.684L69.261,13.684z M67.139,12.081c0,0.165-0.105,0.217-0.207,0.326
	c-0.089-0.113-0.157-0.243-0.2-0.38c-0.011-0.165,0.006-0.331,0.053-0.489C66.932,11.701,67.139,11.918,67.139,12.081z M72.213,17
	c0,0.017-0.104,0.115-0.104,0.115c-0.224-0.121-0.477-0.178-0.73-0.171c0-0.218-0.162-0.487-0.271-0.487
	c-0.325,0-0.286,0.216-0.543,0.216l0.489-0.489c0.054-0.108,0.054-0.108,0.163-0.108c0.162,0.108,0.217,0.166,0.38,0.166
	c0.004,0.11-0.014,0.221-0.053,0.323c0.164,0.11,0.268-0.054,0.367,0.11C72.054,16.73,72.213,16.785,72.213,17L72.213,17z
	 M67.846,13.254c0,0.102-0.163,0.211-0.217,0.211c-0.147-0.143-0.259-0.319-0.324-0.515c-0.004-0.21,0.053-0.418,0.161-0.601
	c0.052,0,0.106,0.109,0.16,0.109c0.055,0.054,0,0.217,0.055,0.381C67.846,12.952,67.953,13.148,67.846,13.254z M63.671,8.032
	c-0.658-0.383-1.393-0.615-2.153-0.68c0.02,0.124,0.007,0.25-0.037,0.37c0.638,0.267,1.231,0.624,1.767,1.063v0.49
	c-0.546-0.542-1.143-1.088-1.817-1.249c-0.049,0.11-0.257,0.217-0.312,0.436c-0.365-0.297-0.796-0.5-1.253-0.594
	c-0.165,0-0.287-0.574-0.287-0.574c0.254-0.089,0.453-0.292,0.543-0.543h0.218c0.162,0,0.162-0.107,0.162-0.272
	c0-0.329-0.71-0.329-1.032-0.329c-0.301-0.042-0.608,0.016-0.876,0.163c-0.103,0-0.049,0.162-0.049,0.285
	c0,0.052,0.163,0.163,0.163,0.163c0.11,0,0.219-0.108,0.328-0.108c-0.055,0.329,0.054,0.491,0.38,0.654l-0.054,0.529
	c-0.654,0-1.091,0.259-1.575,0.476c-0.155-0.117-0.284-0.265-0.381-0.433c-0.653,0.214-1.753,1.085-1.753,1.085V8.577
	c0.479-0.434,1.1-0.656,1.586-0.903V7.295c-0.218-0.106-0.432,0-0.651,0c-0.459,0.063-0.894,0.246-1.261,0.53
	c-0.003-0.121-0.023-0.244-0.055-0.363c0.603-0.325,1.315-0.597,2.021-0.488V6.756c-0.055-0.109-0.055-0.272-0.161-0.272
	c-0.325-0.328-0.654-0.816-0.654-1.142l0.22-0.102c-0.108-0.312-0.22-1.122,0-1.393c-0.298-0.145-0.546-0.369-0.717-0.651
	c-0.124-0.236-0.219-0.484-0.287-0.741c0.165-0.325,0.287-0.433,0.427-0.756c0.117-0.002,0.226-0.062,0.286-0.162
	c0.271-0.055,0.431-0.326,0.758-0.161c0.207,0.019,0.409,0.074,0.6,0.161c-0.013,0.102,0.028,0.205,0.108,0.27
	c0.327,0,0.327,0.324,0.492,0.595c0.138,0.041,0.289,0.061,0.435,0.054c0.325,0.101,0.597,0.101,0.705,0.248
	c0.414-0.23,0.89-0.319,1.358-0.248c0.086-0.213,0.16-0.428,0.219-0.649c0.052,0.159,0.052,0,0.16,0
	c0.2-0.163,0.448-0.43,0.826-0.324c0.218,0.162,0.599,0.055,0.815,0.324c0.159,0.214,0.283,0.541,0.434,0.795
	c-0.162,0.319,0,0.754-0.325,0.917l-0.325,0.325c-0.11,0-0.11,0.109-0.272,0.109c0.129,0.426,0.089,0.882-0.108,1.279
	c0.108-0.045,0.271-0.045,0.271-0.199c0.057,0.054,0,0.153,0,0.199v0.159c-0.022,0.292-0.161,0.565-0.38,0.759
	c-0.106,0.33-0.38,0.765-0.732,0.819v0.107c0.772,0.018,1.527,0.221,2.201,0.595L63.671,8.032z M65.882,11.434l-0.284,0.106
	c-0.417,0.03-0.828-0.107-1.143-0.381c0.214,0,0.49-0.284,0.49-0.284C65.2,11.142,65.524,11.337,65.882,11.434z M64.358,10.21
	c-0.306,0-0.686,0.163-0.857-0.164c0.113-0.055,0.222-0.219,0.328-0.326L64.358,10.21z M68.77,15.262
	c0,0.284-0.323,0.597-0.435,0.814c0.111-0.271,0.111-0.814,0-0.814c-0.11-0.055-0.328,0-0.328-0.11c0-0.163,0.058-0.376,0.058-0.488
	c0-0.221-0.164-0.326-0.164-0.435c0-0.329,0.383-0.38,0.49-0.6c0.047,0.23,0.067,0.469,0.056,0.706c0,0.107,0.16,0.436,0,0.706
	C68.446,15.207,68.77,15.098,68.77,15.262z M67.521,14.664c0,0.323-0.216,0.598-0.271,0.925c0.028-0.294-0.068-0.591-0.269-0.813
	c0-0.109,0.157-0.109,0.052-0.286c0,0-0.3-0.163-0.3-0.38s0.2-0.38,0.3-0.543c0-0.054,0.217,0.11,0.217,0.434
	c0.005,0.113-0.015,0.224-0.055,0.327C67.139,14.501,67.521,14.501,67.521,14.664z M63.073,10.83
	c-0.271,0.053-0.489-0.217-0.761-0.325c-0.057-0.27-0.128-0.532-0.217-0.79c0.217,0.162,0.706,0.162,0.597,0.652
	C62.692,10.504,62.91,10.611,63.073,10.83z M64.577,12.352c-0.276,0.024-0.552-0.032-0.795-0.163
	c-0.229-0.103-0.431-0.252-0.601-0.437c0.188-0.104,0.391-0.176,0.601-0.216C63.996,11.754,64.195,12.134,64.577,12.352
	L64.577,12.352z M55.498,4.006L55.12,4.114l0.053-0.285c0.089-0.176,0.199-0.34,0.325-0.49V4.006z M62.422,11.531
	c-0.22,0.054-0.599,0.163-0.702-0.105c-0.226-0.395-0.226-0.88,0-1.277c0.089,0.292,0.161,0.592,0.211,0.894
	c0.057,0.222,0.382,0.333,0.491,0.495V11.531z M60.89,8.577c-0.054,0.326-0.161,0.815-0.489,1.034
	c-0.014-0.183-0.09-0.356-0.217-0.49c-0.054,0,0,0.162-0.054,0.162c-0.046,0.18-0.081,0.361-0.107,0.543
	c-0.16,0.104-0.364,0.125-0.544,0.054v-0.16c-0.046-0.139-0.063-0.287-0.054-0.436l-0.056-0.053
	c-0.162,0.053-0.162,0.163-0.162,0.271c-0.088,0.109-0.145,0.242-0.164,0.381c-0.178,0.004-0.351-0.054-0.49-0.163V9.231
	c0-0.109,0-0.109-0.054-0.109l-0.288,0.287c-0.216-0.163-0.284-0.6-0.284-0.859c0.872-0.489,1.957-0.327,2.612-0.054
	C60.672,8.52,60.782,8.52,60.89,8.577z M63.673,12.952H63.51c-0.595,0.194-1.083-0.164-1.575-0.489
	c0.313-0.114,0.644-0.171,0.976-0.171l0.163,0.328c0.208,0.089,0.41,0.203,0.598,0.333H63.673L63.673,12.952z M55.606,4.762
	l-0.286,0.33c0.054,0.52-0.162,0.9-0.162,1.39l-0.286-0.857c0.055-0.244,0.151-0.473,0.286-0.683L55.606,4.762z M61.162,11.754
	c-0.286-0.162-0.764-0.218-0.65-0.547c0.081-0.178,0.213-0.328,0.378-0.431C60.923,11.116,61.015,11.449,61.162,11.754z
	 M66.152,17.281h-0.056c-0.108-0.165-0.163-0.285-0.286-0.285c0.163-0.597-0.161-1.085-0.27-1.576v-0.163
	c0.165,0.287,0.6,0.548,0.544,0.816C66.13,16.474,66.152,16.877,66.152,17.281L66.152,17.281z M64.91,15.262
	c-0.286,0-0.487,0-0.65-0.286c-0.055,0-0.147-0.163-0.2-0.055c-0.269,0.218-0.543-0.16-0.858-0.108
	c-0.16,0.179-0.378,0.298-0.617,0.337v-0.055c0.018-0.194,0.144-0.361,0.326-0.432c0.328,0.108,0.598-0.6,0.926-0.22
	c0.134,0.043,0.276,0.061,0.415,0.055C64.624,14.664,64.74,14.987,64.91,15.262z M59.965,10.883c0,0.383-0.054,0.857-0.436,1.037
	l-0.107-0.542C59.629,11.246,59.814,11.079,59.965,10.883z M61.769,13.254c-0.178,0.133-0.39,0.207-0.606,0.211
	c-0.328-0.298-0.618-0.634-0.857-1.005l0.857,0.163C61.379,12.819,61.581,13.03,61.769,13.254z M65.011,16.35
	c-0.216-0.167-0.543-0.167-0.652-0.438c-0.207-0.047-0.418-0.067-0.632-0.054c-0.232,0.043-0.472,0.062-0.708,0.054
	c-0.057,0,0-0.054-0.108-0.106c-0.326,0.106-0.651,0.106-0.979,0.436l0.285-0.653c0.164-0.023,0.329-0.061,0.488-0.106
	c0.181-0.043,0.363-0.062,0.545-0.055v0.055c0.597,0,1.284-0.055,1.717,0.434L65.011,16.35z M58.823,11.754
	c-0.324-0.323-0.599-0.598-0.599-0.926c0.169-0.016,0.342,0.023,0.488,0.108C58.713,11.208,58.823,11.434,58.823,11.754z
	 M57.789,10.208l-0.164,0.675c-0.183-0.31-0.312-0.65-0.38-1.002L57.789,10.208z M65.552,17.434
	c-0.089,0.209-0.163,0.424-0.22,0.646c-0.108-0.326-0.216-0.808-0.597-0.808c-0.037-0.187-0.157-0.351-0.325-0.442l-0.418-0.058
	c0.054,0.218,0.36,0.218,0.152,0.496c0.208,0.163,0.371,0.163,0.479,0.424c0.11,0.166,0,0.382,0.055,0.489l-0.326,0.162
	c0-0.272,0.055-0.803-0.307-0.913c-0.323,0.113-0.38-0.327-0.597-0.443c-0.108,0-0.108-0.274-0.271-0.161
	c-0.284,0.161-0.598,0-0.856,0.161l0.272-0.435c0.219-0.164,0.434-0.108,0.653-0.164l0.433-0.051c0.433,0,0.798,0.215,1.23,0.38
	c0.203,0.083,0.331,0.279,0.326,0.498C65.338,17.281,65.552,17.281,65.552,17.434z M61.268,14.927h-0.108
	c-0.197-0.057-0.379-0.149-0.543-0.271c-0.033-0.106-0.051-0.216-0.053-0.326h0.434L61.268,14.927z M57.081,11.04
	c-0.349-0.134-0.646-0.371-0.858-0.679c-0.091-0.206-0.14-0.428-0.149-0.65c0.172,0.011,0.324,0.116,0.396,0.271v0.055
	c0.286,0.334,0.56,0.579,0.613,1.016L57.081,11.04z M59.686,12.943c-0.05,0.303-0.217,0.406-0.488,0.787
	c-0.16,0.112-0.49,0.162-0.813,0.324c0.051-0.162,0.211-0.213,0.325-0.378c0.145-0.183,0.272-0.379,0.382-0.586
	c0.18-0.109,0.393-0.157,0.601-0.137L59.686,12.943z M63.663,18.187l-0.162,0.162c-0.16-0.162-0.054-0.595-0.323-0.653
	c-0.287,0-0.489-0.264-0.6-0.314l0.221-0.109c0.07-0.03,0.148-0.03,0.218,0c0.109,0.109,0.218,0.16,0.218,0.286
	c0.108,0.15,0.271,0,0.385,0.15c0.066,0.152,0.084,0.321,0.052,0.485L63.663,18.187z M58.713,12.516
	c-0.163,0.324-0.323,0.631-0.651,0.736c-0.252,0.054-0.511,0.054-0.762,0c0.163-0.107,0.323-0.158,0.545-0.302l0.429-0.435H58.713z
	 M59.801,14.987c-0.184,0.145-0.431,0.188-0.65,0.112l-0.327-0.436h0.82L59.801,14.987z M55.881,10.883
	c-0.285,0.285-0.545,0.383-0.654,0.709c-0.004-0.151-0.042-0.298-0.106-0.435c0.046-0.153,0.139-0.284,0.271-0.377
	C55.553,10.83,55.661,10.83,55.881,10.883z M56.487,11.703c-0.018,0.286-0.139,0.558-0.347,0.76
	c-0.064,0.059-0.132,0.114-0.206,0.164c0-0.328,0.154-0.603,0.154-0.872c0.152-0.054,0.298-0.162,0.393-0.054L56.487,11.703z
	 M57.246,12.356l-0.217,0.792c-0.286,0.212-0.642,0.107-0.94,0.107c0.393-0.107,0.724-0.569,0.94-0.9
	c0.054-0.063,0.109-0.003,0.217-0.003V12.356z M57.532,15.102c0,0.162-0.054,0.814-0.054,0.814c-0.107-0.38-0.379-0.762-0.709-0.762
	c-0.157-0.133-0.282-0.299-0.367-0.487c-0.15-0.163-0.287,0-0.512-0.163c-0.244-0.024-0.494,0.034-0.706,0.163v-0.163l0.381-0.437
	c0.38,0.054,0.834,0,0.933,0.286c0.223,0.109,0.427,0.257,0.599,0.438v0.16c0.098,0.037,0.313,0.093,0.422,0.149L57.532,15.102z
	 M57.246,16.787l-0.38,0.335c-0.107-0.117,0-0.384-0.163-0.551c0-0.108,0.109-0.161,0.053-0.215
	c-0.053-0.106-0.667-0.329-0.667-0.329c-0.245-0.167-0.478-0.349-0.698-0.542c-0.22-0.056-0.381,0.054-0.653,0.106v-0.106
	c0.109-0.218,0.109-0.493,0.438-0.493c0.162,0,0.38,0,0.488,0.162c0.221,0,0.328,0.218,0.48,0.287
	c0.18,0.191,0.388,0.355,0.616,0.488c-0.015,0.132,0.049,0.262,0.163,0.33c0.323-0.017,0.216,0.319,0.323,0.525V16.787
	L57.246,16.787z M56.438,17.56l-0.146,0.531l-0.356-0.969c-0.437-0.384-0.925-0.441-1.197-0.658c-0.217-0.054-0.217,0.108-0.326,0
	c-0.01-0.164,0.049-0.325,0.168-0.435h0.33l0.325,0.163c0.162,0.164,0.544,0.164,0.544,0.489c0,0.054-0.059,0.106,0.109,0.325
	l0.508,0.117L56.438,17.56z M54.955,18.09c0,0.435-0.704,1.031-0.704,1.031c0-0.271,0.16-0.597,0.16-0.923
	c-0.114-0.119-0.271-0.195-0.436-0.22c-0.16,0.112-0.16,0.22-0.215,0.384c-0.161,0.325-0.487,0.651-0.544,0.979
	c-0.027,0-0.055-0.022-0.055-0.052l0,0c0-0.543,0.055-1.468,0.381-1.84c0.202-0.245,0.5-0.382,0.814-0.38l0.284,0.052l-0.232,0.314
	c0.214,0.12,0.546,0.324,0.546,0.652V18.09L54.955,18.09z M53.05,17.764c0.001,0.209-0.053,0.417-0.161,0.599
	c-0.057-0.216-0.208-0.487-0.472-0.487c-0.214,0.435-0.271,0.595-0.054,1.248c-0.139,0.138-0.304,0.251-0.486,0.325
	c-0.092-0.259-0.128-0.538-0.11-0.813c-0.005-0.365,0.052-0.726,0.163-1.075c0.163-0.164,0.285-0.439,0.434-0.557h0.572
	c-0.26,0-0.26,0.229-0.26,0.389c0.159,0.044,0.374,0.108,0.374,0.368V17.764L53.05,17.764z M51.661,18.362
	c-0.054,0-0.222-0.164-0.38-0.164c-0.154,0.327,0,0.547,0,0.923c-0.002,0.112-0.021,0.22-0.055,0.327
	c-0.1,0-0.284-0.217-0.342-0.435v-0.859l0.455-0.572c0.278,0.15,0.413,0.475,0.321,0.774V18.362L51.661,18.362z M62.804,3.362
	c0.127-0.336,0.087-0.712-0.111-1.012c-0.108-0.217-0.38-0.325-0.65-0.541l-0.375,0.214c-0.19,0.124-0.301,0.344-0.283,0.572
	c0.377,0.212,0.686,0.531,0.883,0.918h0.164c0.153-0.158,0.262,0.004,0.371-0.158L62.804,3.362z M60.999,3.688
	c0-0.162-0.054-0.162-0.105-0.162c-0.286,0-0.286-0.435-0.489-0.326c-0.104,0-0.216-0.108-0.376,0c0,0.054,0,0.054,0.105,0.054
	c0.271,0,0.163,0.381,0.381,0.435H60.999z M61.823,4.34c0,0,0.11,0,0-0.056l-1.142-0.162c-0.106,0.162-0.38,0.162-0.38,0.324h-0.108
	c0.093,0.455,0.129,0.92,0.108,1.386c0.252,0.022,0.442,0.235,0.438,0.488c0.224,0.086,0.439,0.196,0.641,0.325
	c0.103-0.051,0.149-0.217,0.203-0.379C61.381,5.979,60.9,6.157,60.9,5.668l-0.321-0.11c0.014-0.286-0.007-0.574-0.058-0.857
	l0.058-0.04c0,0.04,0.051,0.096,0.164,0.21c0.219,0.045,0.448,0.006,0.643-0.114c0.1-0.056,0.1-0.319,0.199-0.319
	c0.101,0,0.184,0.003,0.237-0.103L61.823,4.34z M59.15,3.196c-0.107-0.109-0.438,0.055-0.598,0.109
	c-0.198,0.029-0.351,0.184-0.38,0.379h0.597c0.096-0.185,0.224-0.352,0.381-0.49V3.196z M57.952,2.605
	c-0.054-0.529-0.65-0.572-0.923-0.795h-0.217c-0.422,0.159-0.521,0.595-0.571,0.953c0.149,0.488,0.467,0.162,0.679,0.488
	c0.322-0.25,0.67-0.466,1.032-0.648V2.605z M61.162,7.568V7.301h-0.537l-0.053,0.053L61.162,7.568z M58.713,4.444
	c0-0.104-0.112-0.214-0.271-0.323h-1.303c-0.007,0.171,0.127,0.317,0.3,0.323c0.009,0,0.018,0,0.026,0
	c0,0.224,0.163,0.264,0.217,0.321c0.165,0.111,0.215,0.111,0.38,0c0.16,0.111,0.217-0.098,0.284,0
	c0.011,0.249-0.008,0.496-0.056,0.74c-0.054,0.384-0.381,0.326-0.655,0.491c0,0.163-0.162,0.436,0,0.598
	c0.171-0.117,0.354-0.213,0.547-0.285c0-0.163,0.162-0.326,0.38-0.436c-0.007-0.479,0.151-0.946,0.151-1.432V4.444L58.713,4.444z
	 M58.278,7.302c-0.105-0.218-0.38,0-0.653-0.107c-0.018,0.132,0.048,0.26,0.164,0.323c0.138-0.123,0.308-0.201,0.489-0.223V7.302
	L58.278,7.302z"/>
</svg>
