<?xml version="1.0" encoding="utf-8"?>
<!-- Generator: Adobe Illustrator 15.1.0, SVG Export Plug-In  -->
<!DOCTYPE svg PUBLIC "-//W3C//DTD SVG 1.1//EN" "http://www.w3.org/Graphics/SVG/1.1/DTD/svg11.dtd" [
	<!ENTITY ns_flows "http://ns.adobe.com/Flows/1.0/">
]>
<svg version="1.1"
	 xmlns="http://www.w3.org/2000/svg" xmlns:xlink="http://www.w3.org/1999/xlink" xmlns:a="http://ns.adobe.com/AdobeSVGViewerExtensions/3.0/"
	 x="0px" y="0px" width="722px" height="449px" viewBox="-5.553 -3.974 722 449" enable-background="new -5.553 -3.974 722 449"
	 xml:space="preserve">
<defs>
</defs>
<path fill-rule="evenodd" clip-rule="evenodd" fill="#567382" d="M708.578,3.175c5.453,16.037-13.893,27.944-24.115,18.296
	C679.371,6.495,697.265-6.116,708.578,3.175z"/>
<path fill-rule="evenodd" clip-rule="evenodd" fill="#567382" d="M620.429,38.936C609.72,27.045,631.728,8.854,638.726,20.64
	C644.273,29.989,631.027,44.773,620.429,38.936z"/>
<path fill-rule="evenodd" clip-rule="evenodd" fill="#567382" d="M575.523,32.283c9.291,6.862,0.51,22.371-8.316,20.79
	C556.794,51.209,561.849,29.695,575.523,32.283z"/>
<path fill-rule="evenodd" clip-rule="evenodd" fill="#567382" d="M516.48,63.884c-11.781-9.018,8.102-27.398,11.643-14.137
	C529.669,55.543,525.552,64.957,516.48,63.884z"/>
<path fill-rule="evenodd" clip-rule="evenodd" fill="#567382" d="M480.72,55.567c5.609,5.58,1.066,18.073-4.99,17.464
	C467.698,72.222,469.566,54.44,480.72,55.567z"/>
<path fill-rule="evenodd" clip-rule="evenodd" fill="#567382" d="M435.813,81.348c-3.617-4.595-1.745-15.46,4.157-15.802
	C447.453,67.495,444.218,82.878,435.813,81.348z"/>
<path fill-rule="evenodd" clip-rule="evenodd" fill="#567382" d="M696.937,69.705c25.184-3.056,5.797,36.162-10.813,22.451
	C678.031,85.477,685.38,71.105,696.937,69.705z"/>
<path fill-rule="evenodd" clip-rule="evenodd" fill="#567382" d="M570.533,75.527c39.73-6.395,25.684,64.448-10.811,51.557
	C535.029,118.364,550.158,78.804,570.533,75.527z"/>
<path fill-rule="evenodd" clip-rule="evenodd" fill="#F07C30" d="M343.505,78.019c15.089-1.509,26.676,8.148,26.612,24.119
	c-0.102,24.994-32.122,32.654-44.908,14.139C314.007,100.048,325.319,79.839,343.505,78.019z"/>
<path fill-rule="evenodd" clip-rule="evenodd" fill="#567382" d="M626.251,82.181c18.99-5.536,13.855,23.104-0.834,21.619
	C613.085,102.555,617.181,84.82,626.251,82.181z"/>
<path fill-rule="evenodd" clip-rule="evenodd" fill="#567382" d="M519.804,85.503c36.488-6.997,21.906,62.066-9.146,47.403
	C493.109,124.62,499.279,89.442,519.804,85.503z"/>
<path fill-rule="evenodd" clip-rule="evenodd" fill="#567382" d="M135.605,94.653c0,67.081,0,134.167,0,201.248
	c-13.583,0-27.167,0-40.749,0c0-7.485,0-14.97,0-22.456c-5.668,5.022-8.851,12.934-14.969,17.468
	c-18.158,13.444-45.694,6.961-57.381-3.329c-36.868-32.465-28.554-137.788,25.78-143.865c17.853-1.997,36.568,5.082,44.076,17.463
	c0.027-21.768,0.189-45.427-0.027-66.528C106.472,94.653,121.467,94.653,135.605,94.653z M69.909,267.626
	c9.86-0.014,20.944-10.308,22.453-23.284c3.574-30.742,2.805-76.054-26.612-69.026C39.071,181.694,37.198,267.666,69.909,267.626z"
	/>
<path fill-rule="evenodd" clip-rule="evenodd" fill="#567382" d="M474.898,124.589c-7.682-3.988-3.635-18.167,3.326-17.463
	C486.039,107.918,484.589,124.411,474.898,124.589z"/>
<path fill-rule="evenodd" clip-rule="evenodd" fill="#567382" d="M436.644,129.58c-5.996-4.016-2.697-16.661,3.326-15.802
	C445.988,114.638,445.929,129.787,436.644,129.58z"/>
<path fill-rule="evenodd" clip-rule="evenodd" fill="#567382" d="M627.914,127.915c37.096-3.938,35.697,50.934,4.99,56.551
	c-30.453,5.569-40.994-32.515-21.621-49.896C615.359,130.911,617.544,129.02,627.914,127.915z"/>
<path fill-rule="evenodd" clip-rule="evenodd" fill="#567382" d="M692.779,139.56c11.594-3.259,16.479,2.468,16.633,9.979
	c0.303,14.902-24.406,19.149-26.613,4.988C681.32,145.028,686.416,141.35,692.779,139.56z"/>
<path fill-rule="evenodd" clip-rule="evenodd" fill="#567382" d="M293.576,295.88c-14.185-0.053-30.806,0.055-43.426,0
	c0-17.764,0-36.477,0-55.716c0-27.122,4.665-70.77-27.224-60.842c-10.94,3.404-14.405,20.079-14.405,24.031
	c0,29.784-0.559,70.289-0.559,92.526c-13.543,0-32.846,0-43.467,0c0.553-49.342-0.572-101.154,0.227-148.856
	c13.305,0,27.216,0,40.522,0c0,8.314,0,16.632,0,24.949c7.508-13.081,17.212-26.521,35.697-28.43
	c29.38-3.036,49.941,10.513,52.083,38.304C295.63,215.685,293.781,259.7,293.576,295.88z"/>
<path fill-rule="evenodd" clip-rule="evenodd" fill="#567382" d="M475.73,144.552c25.785-4.332,24.57,46.262,0,45.734
	C453.277,189.806,454.484,148.117,475.73,144.552z"/>
<path fill-rule="evenodd" clip-rule="evenodd" fill="#567382" d="M326.042,146.212c13.86,0,27.72,0,41.581,0
	c0,49.897,0,99.791,0,149.689c-13.896,0.01-33.279,0.142-43.254-0.021c0-48.786,0.011-98.386,0.011-147.174
	C324.372,145.856,324.165,146.15,326.042,146.212z"/>
<path fill-rule="evenodd" clip-rule="evenodd" fill="#567382" d="M568.037,151.203c14.533-4.521,13.895,22.388-0.83,19.126
	C558.339,168.366,560.558,153.528,568.037,151.203z"/>
<path fill-rule="evenodd" clip-rule="evenodd" fill="#567382" d="M523.964,155.357c6.729,5.835,2.916,19.021-4.99,18.298
	C510.017,172.832,510.076,152.624,523.964,155.357z"/>
<path fill-rule="evenodd" clip-rule="evenodd" fill="#567382" d="M439.139,162.012c6.441,0.721,5.161,14.76,0,15.802
	C430.607,177.793,432.222,162.56,439.139,162.012z"/>
<path fill-rule="evenodd" clip-rule="evenodd" fill="#567382" d="M624.587,191.95c37.693-5.305,42.393,55.336,4.99,56.551
	C593.701,249.665,592.32,196.492,624.587,191.95z"/>
<path fill-rule="evenodd" clip-rule="evenodd" fill="#567382" d="M568.037,193.615c31-4.063,33.596,44.615,9.148,51.557
	C544.046,254.585,534.726,197.978,568.037,193.615z"/>
<path fill-rule="evenodd" clip-rule="evenodd" fill="#567382" d="M518.142,195.277c32.463-4.535,28.221,57.203-3.326,48.232
	C493.115,237.341,496.392,198.313,518.142,195.277z"/>
<path fill-rule="evenodd" clip-rule="evenodd" fill="#567382" d="M473.236,196.106c28.404-6.477,28.877,49.932,0,44.909
	C454.555,237.768,454.262,200.438,473.236,196.106z"/>
<path fill-rule="evenodd" clip-rule="evenodd" fill="#567382" d="M691.947,208.582c11.855-3.034,19.631,4.457,16.631,15.8
	c-3.15,11.923-23.713,10.374-25.779-1.661C681.208,213.448,685.363,210.267,691.947,208.582z"/>
<path fill-rule="evenodd" clip-rule="evenodd" fill="#567382" d="M439.139,226.047c-8.289,0.324-7.821-16.917,0.831-15.804
	C444.427,212.862,444.753,224.469,439.139,226.047z"/>
<path fill-rule="evenodd" clip-rule="evenodd" fill="#567382" d="M471.572,247.668c28.814-7.174,31.186,48.713,3.326,44.907
	C457.075,290.139,451.877,252.568,471.572,247.668z"/>
<path fill-rule="evenodd" clip-rule="evenodd" fill="#567382" d="M439.139,274.278c-7.202,0.538-7.788-13.582-2.495-15.803
	C444.313,258.273,445.523,272.126,439.139,274.278z"/>
<path fill-rule="evenodd" clip-rule="evenodd" fill="#567382" d="M516.48,265.961c11.24-5.127,14.475,16.817,4.158,17.467
	C512.339,283.946,509.091,269.331,516.48,265.961z"/>
<path fill-rule="evenodd" clip-rule="evenodd" fill="#567382" d="M566.375,269.291c13.523-4.575,15.732,17.254,5.82,19.125
	C562.275,290.291,555.226,273.061,566.375,269.291z"/>
<path fill-rule="evenodd" clip-rule="evenodd" fill="#567382" d="M622.925,273.445c13.635-5.044,20.805,14.018,11.641,19.958
	C623.179,300.793,608.416,278.813,622.925,273.445z"/>
<path fill-rule="evenodd" clip-rule="evenodd" fill="#567382" d="M691.115,277.604c9.223-2.219,17.758,3.543,17.463,13.309
	c-0.521,17.353-27.246,12.29-26.609-3.329C682.093,284.49,683.929,279.333,691.115,277.604z"/>
<path fill-rule="evenodd" clip-rule="evenodd" fill="#567382" d="M513.984,305.047c26.975-5.59,37.258,45.624,11.643,49.065
	C500.769,357.452,488.005,310.434,513.984,305.047z"/>
<path fill-rule="evenodd" clip-rule="evenodd" fill="#567382" d="M439.97,322.511c-7.787,1.12-8.491-12.378-4.157-15.799
	C443.655,306.564,445.242,318.897,439.97,322.511z"/>
<path fill-rule="evenodd" clip-rule="evenodd" fill="#567382" d="M562.216,311.703c23.275-4.933,45.119,33.091,23.285,49.062
	C556.14,382.242,527.933,318.969,562.216,311.703z"/>
<path fill-rule="evenodd" clip-rule="evenodd" fill="#567382" d="M478.224,329.996c-9.578-0.373-10.955-16.635-3.326-17.463
	C481.89,311.771,485.546,325.93,478.224,329.996z"/>
<path fill-rule="evenodd" clip-rule="evenodd" fill="#567382" d="M622.925,336.648c6.279-1.956,13.57,2.274,14.967,8.318
	c1.438,6.206-1.023,12.049-4.988,13.304C621.648,361.831,608.72,341.067,622.925,336.648z"/>
<path fill-rule="evenodd" clip-rule="evenodd" fill="#567382" d="M690.283,346.628c9.086-2.041,27.117,13.206,14.969,22.454
	C690.31,380.452,671.169,350.922,690.283,346.628z"/>
<path fill-rule="evenodd" clip-rule="evenodd" fill="#567382" d="M440.803,370.744c-8.48,1.388-11.35-13.735-4.159-15.799
	C442.231,355.598,444.451,366.118,440.803,370.744z"/>
<path fill-rule="evenodd" clip-rule="evenodd" fill="#567382" d="M479.888,380.727c-13.627,2.352-12.722-21.809-1.664-15.804
	C482.189,367.076,483.279,376.381,479.888,380.727z"/>
<path fill-rule="evenodd" clip-rule="evenodd" fill="#567382" d="M523.964,393.198c-13.262,2.362-16.107-19.071-4.99-18.296
	C525.109,375.332,529.595,387.182,523.964,393.198z"/>
<path fill-rule="evenodd" clip-rule="evenodd" fill="#567382" d="M574.691,406.504c-11.957,2.301-17.506-11.475-11.643-19.125
	C572.82,381.23,583.33,399.198,574.691,406.504z"/>
<path fill-rule="evenodd" clip-rule="evenodd" fill="#567382" d="M622.925,399.851c9.666-2.371,22.848,18.612,9.979,22.455
	C621.57,425.689,608.375,403.421,622.925,399.851z"/>
<path fill-rule="evenodd" clip-rule="evenodd" fill="#567382" d="M707.748,435.611c-10.166,12.154-27.789-1.411-25.779-13.306
	C684.464,407.522,713.246,417.474,707.748,435.611z"/>
<path fill-rule="evenodd" clip-rule="evenodd" fill="#567382" d="M95.015,321.304v41.612c0,0-0.274,8.44,8.188,5.356l1.097-0.33
	v-4.115c0,0-4.643,1.408-4.643-0.541c0-1.95,0-41.982,0-41.982H95.015z"/>
<rect x="294.524" y="336.679" fill-rule="evenodd" clip-rule="evenodd" fill="#567382" width="5.486" height="32.299"/>
<circle fill-rule="evenodd" clip-rule="evenodd" fill="#567382" cx="297.268" cy="326.893" r="3.588"/>
<path fill-rule="evenodd" clip-rule="evenodd" fill="#567382" d="M333.259,337.851c0,0-10.013-4.346-17.568,1.229
	c0,0-6.991,3.587-5.102,18.134c0,0,3.878,19.777,24.087,7.934l-1.984-3.211c0,0-14.547,7.459-17.568-5.572
	c0,0-3.403-23.051,18.135-13.697V337.851z"/>
<path fill-rule="evenodd" clip-rule="evenodd" fill="#567382" d="M166.362,337.851c0,0-10.013-4.346-17.568,1.229
	c0,0-6.991,3.587-5.102,18.134c0,0,3.878,19.777,24.088,7.934l-1.984-3.211c0,0-14.547,7.459-17.569-5.572
	c0,0-3.403-23.051,18.135-13.697V337.851z"/>
<path fill-rule="evenodd" clip-rule="evenodd" fill="#567382" d="M354.166,335.748c-7.847,0-14.207,7.435-14.207,16.604
	c0,9.166,6.359,16.601,14.207,16.601s14.207-7.435,14.207-16.601C368.373,343.183,362.013,335.748,354.166,335.748z
	 M354.349,364.232c-5.269,0-9.534-5.318-9.534-11.88c0-6.564,4.266-11.884,9.534-11.884c5.27,0,9.536,5.319,9.536,11.884
	C363.885,358.914,359.619,364.232,354.349,364.232z"/>
<path fill-rule="evenodd" clip-rule="evenodd" fill="#567382" d="M235.056,335.748c-7.847,0-14.207,7.435-14.207,16.604
	c0,9.166,6.36,16.601,14.207,16.601c7.847,0,14.207-7.435,14.207-16.601C249.263,343.183,242.903,335.748,235.056,335.748z
	 M235.239,364.232c-5.268,0-9.533-5.318-9.533-11.88c0-6.564,4.265-11.884,9.533-11.884c5.271,0,9.536,5.319,9.536,11.884
	C244.775,358.914,240.51,364.232,235.239,364.232z"/>
<polygon fill-rule="evenodd" clip-rule="evenodd" fill="#567382" points="233.642,333.021 238.244,333.021 246.094,323.384 
	239.218,323.384 "/>
<path fill-rule="evenodd" clip-rule="evenodd" fill="#567382" d="M258.601,336.574v32.403h5.198V345.42
	c0,0,7.959-9.204,13.481-2.654c0,0,0.867,0.759,0.867,4.44v21.771h5.143v-25.021c0,0-2.545-12.182-15.322-6.767l-4.331,2.762v-3.378
	H258.601z"/>
<path fill-rule="evenodd" clip-rule="evenodd" fill="#567382" d="M78.15,336.865c-7.941-2.96-14.727,2.599-16.604,8.951
	c-1.876,6.351,0.433,14.079,0.433,14.079c7.076,16.53,23.22,5.146,23.22,5.146l-1.732-3.397c-16.19,8.467-17.442-8.595-17.442-8.595
	h19.623c0,0,0,0,0-1.892S86.089,339.826,78.15,336.865z M65.762,348.63c0,0,0.974-8.661,7.644-8.661c6.92,0,7.299,8.083,7.299,8.661
	H65.762z"/>
<path fill-rule="evenodd" clip-rule="evenodd" fill="#567382" d="M127.959,336.865c-7.94-2.96-14.726,2.599-16.603,8.951
	c-1.876,6.351,0.433,14.079,0.433,14.079c7.076,16.53,23.22,5.146,23.22,5.146l-1.732-3.397c-16.19,8.467-17.441-8.595-17.441-8.595
	h19.623c0,0,0,0,0-1.892S135.899,339.826,127.959,336.865z M115.571,348.63c0,0,0.975-8.661,7.644-8.661
	c6.92,0,7.299,8.083,7.299,8.661H115.571z"/>
<path fill-rule="evenodd" clip-rule="evenodd" fill="#567382" d="M177.038,336.574h-4.721v4.877h4.721v20.177
	c0,0,0.529,7.302,6.135,7.325c5.605,0.024,8.673-3.786,8.673-3.786l-2.065-3.065c0,0-6.786,4.186-7.699,1.002c0,0,0-2.003,0-3.185
	c0-1.181,0-18.587,0-18.587h7.05l2.478-4.758h-9.528V328l-4.984,2.183L177.038,336.574z"/>
<path fill-rule="evenodd" clip-rule="evenodd" fill="#567382" d="M199.795,336.574v32.403h5.154v-23.812
	c0,0,3.602-6.494,9.885-3.601l1.907-4.521c0,0-3.25-3.528-10.522,1.345l-1.271,1.269v-3.083H199.795z"/>
</svg>
